<svg xmlns="http://www.w3.org/2000/svg" viewBox="0 0 32 32" width="32" height="32">
  <defs>
    <linearGradient id="iconGradient" x1="0%" y1="0%" x2="100%" y2="100%">
      <stop offset="0%" style="stop-color:#3b82f6;stop-opacity:1" />
      <stop offset="50%" style="stop-color:#1d4ed8;stop-opacity:1" />
      <stop offset="100%" style="stop-color:#1e40af;stop-opacity:1" />
    </linearGradient>
    <filter id="glow">
      <feGaussianBlur stdDeviation="1" result="coloredBlur"/>
      <feMerge> 
        <feMergeNode in="coloredBlur"/>
        <feMergeNode in="SourceGraphic"/>
      </feMerge>
    </filter>
  </defs>
  
  <!-- Background circle -->
  <circle cx="16" cy="16" r="15" fill="url(#iconGradient)" filter="url(#glow)"/>
  
  <!-- JSON braces -->
  <g fill="white" stroke="white" stroke-width="1.5" stroke-linecap="round" filter="url(#glow)">
    <!-- Left brace -->
    <path d="M9 8 Q7 8 7 10 L7 12 Q7 13 6 13 Q7 13 7 14 L7 22 Q7 24 9 24" fill="none"/>
    
    <!-- Right brace -->
    <path d="M23 8 Q25 8 25 10 L25 12 Q25 13 26 13 Q25 13 25 14 L25 22 Q25 24 23 24" fill="none"/>
  </g>
  
  <!-- Center dots for JSON structure -->
  <g fill="white" opacity="0.9">
    <circle cx="13" cy="12" r="1"/>
    <circle cx="16" cy="14" r="1.2"/>
    <circle cx="19" cy="12" r="1"/>
    <circle cx="13" cy="18" r="1"/>
    <circle cx="19" cy="18" r="1"/>
  </g>
</svg>